<svg width="1095" height="105" viewBox="0 0 1095 105" fill="none" xmlns="http://www.w3.org/2000/svg">
<path d="M26.5 65.0032C26.1 49.8032 8.66667 56.3366 0 61.5032V0H1094.5V54.5C1092.5 50.6667 1086.1 45.7 1076.5 56.5C1064.5 70 1061.5 58 1063 51C1064.5 44 1054.5 35 1051 49C1041.4 74.6 1039.33 69.3333 1039.5 63.5C1040 58.3333 1038.5 48.8 1028.5 52C1016 56 1026.5 75.5 1025 85.5C1023.5 95.5 1015 101.5 1012 92C1009 82.5 1014.5 77.5 1008 61.5C1002.8 48.7 994.833 52.8333 991.5 56.5C986.167 64.5 974 77.7 968 66.5C962 55.3 952.167 56.8333 948 59C943.833 61.6667 933.9 66.5 927.5 64.5C919.5 62 910 46.5 899.5 54C884 65.5 899 79 895 93.5C891 108 876 105 876.5 95C877 85 882.5 70 882.5 60.5C880.5 46 872 48.5 862.5 49.5C853 50.5 862.5 71.5 858.5 80.5C854.5 89.5 840.5 86 846.5 70C852.5 54 849.5 59.5 850.5 54C849 42.5 833.5 45 834.5 55C835.5 65 821.5 71 821.5 61.5C821.5 46 797 43.5 797 65.5C798 104.5 798 100.5 788 104C780 106.8 778 85.1667 778 74C778 67.5 781.9 55 759.5 57C731.5 59.5 741.5 49 713.5 45C685.5 41 686.5 57 682.5 72C678.5 87 669 82 671 67.5C673 53 664.5 45 655.5 57C648.3 66.6 641.833 62.3333 639.5 59C639 56.8333 636.2 52.9 629 54.5C620 56.5 627.5 66 624 74C619.6 90.4 613.167 80.8333 610.5 74C613 65.5 613.8 47.8 597 45C576 41.5 583 69.5 575.5 68.5C568 67.5 571 58 567 52.5C560.5 45.5 550.5 54.5 552 70.5C544 89.5 539.5 80.5 537.5 66C535.5 51.5 497 43.5 481.5 51.5C466 59.5 469 54 458.5 51.5C448.192 49.0457 448.485 55.7473 448.973 66.8739L449 67.5C449.5 79 441.5 76.5 440 76C438.5 75.5 436 71 440 61C444 51 435.5 43.5 430.5 50.5C425.5 57.5 424.5 54 416 50.5C407.5 47 399 49.9997 401 61C403 72.0003 396.5 79.5 391 78.5C385.5 77.5 383.5 66.5 385 54C383 44.8 375.833 47.1667 372.5 49.5C368.167 53.3333 357 60 347 56C334.5 51 330.5 56 321.5 61C312.5 66 312.5 53.5 312 44.9997C306 30.9997 301.833 39.1663 300.5 44.9997C299.833 56.4997 296.6 76.0997 289 62.4997C279.5 45.4997 270 61.5032 273.5 74.4997C277 87.4961 271.5 96.4997 265.5 95.9997C259.5 95.4997 261 90.4996 261 72.9997C252 42.4961 246.5 59.4997 234.5 65.0032C216 76.5068 213.5 51.4997 195.5 59.4997C164.5 74.4997 169 47.4997 155 53.4997C141 59.4997 145.5 70.9997 144.5 87.9997C143.5 105 132.5 103.503 127 100.5C122.6 98.0968 125.167 89.1651 127 84.9997C131.167 75.5008 136.3 55.2024 123.5 49.9997C110.7 44.797 108.833 63.1652 109.5 72.9997C106.5 84.4961 92 91.503 96.5 68.503C101 45.503 88.5 46.503 86 56.503C83.5 66.503 80 82.503 70.5 61.5032C60.1 38.7033 49.8333 54.3366 46 65.0032C47.1667 75.5032 47 97.9032 37 103.503C24.5 110.503 27 84.0032 26.5 65.0032Z" fill="url(#paint0_linear_173_2)"/>
<defs>
<linearGradient id="paint0_linear_173_2" x1="547" y1="1.45469e-06" x2="547" y2="105" gradientUnits="userSpaceOnUse">
<stop stop-color="#35190D"/>
<stop offset="1" stop-color="#221008"/>
</linearGradient>
</defs>
</svg>
