<svg width="422" height="105" viewBox="0 0 422 105" fill="none" xmlns="http://www.w3.org/2000/svg">
<path d="M339.51 29.1172C339.722 29.1879 339.91 29.235 340.099 29.2821C340.92 29.7323 342.447 31.2432 341.982 33.6854C341.582 35.004 341.182 36.3462 340.781 37.6884L340.734 37.8767L340.522 37.8296C340.075 37.759 339.651 37.6648 339.204 37.5942L338.968 37.5471L339.204 36.6052L339.416 36.6523L339.204 36.5816C339.251 36.4639 339.274 36.3226 339.322 36.1813C339.698 34.8392 339.745 33.7325 339.439 32.7199C339.251 32.0842 338.945 31.5426 338.497 31.1187C337.556 30.2004 336.378 30.012 335.13 30.6007C333.717 31.26 332.87 32.3432 332.21 33.3321C330.892 35.3101 329.997 37.5706 329.291 40.6553C328.89 42.4449 328.749 43.9048 328.89 45.247C328.937 45.8356 329.055 46.3537 329.196 46.8011C329.809 48.6377 331.339 49.3441 333.505 48.779C335.06 48.3787 336.001 47.0601 335.719 45.6708C335.648 45.3176 335.389 45.0115 335.036 44.8467C334.753 44.7054 334.447 44.7054 334.188 44.7996C334.094 44.8467 333.953 44.9408 333.812 45.035C333.694 45.1057 333.529 45.2234 333.529 45.2234L332.587 45.8356L332.281 44.7996C331.951 43.6458 332.893 42.021 334.259 41.4559C336.096 40.6788 337.414 41.1498 338.191 41.6914C339.392 42.5155 339.887 43.7399 339.604 45.1292C339.039 47.8371 336.355 50.0506 333.105 50.5215C332.658 50.5921 332.234 50.6157 331.81 50.6157H331.763C328.984 50.6157 326.7 49.2735 325.476 46.9423C325.005 46.024 324.699 45.1999 324.558 44.4228C323.569 38.7951 325.523 34.1092 330.397 30.5536C331.998 29.3998 333.812 28.7405 335.79 28.5992C336.826 28.5286 337.885 28.6698 339.11 28.9995L339.51 29.1172Z" fill="#C7A24A" stroke="#C7A24A" stroke-width="0.5"/>
<path d="M288.004 18.7709L287.171 18.5762L287.254 18.442L288.047 18.302C291.145 17.7824 298.777 12.9498 298.777 12.9498L297.635 17.1485C296.348 21.9014 295.054 26.7247 293.86 31.4862C294.148 31.1816 294.455 30.926 294.786 30.6726C296.714 29.2417 298.957 28.7619 301.466 29.2523C303.299 29.6334 304.524 30.7153 305.006 32.4148C305.453 33.9928 305.125 35.4997 304.747 36.7891L304.61 37.2495C303.678 40.4507 302.901 43.2406 302.223 45.7321C302.08 46.2628 301.984 46.7979 301.876 47.4501L301.87 47.5205C301.831 47.6824 301.791 47.8679 301.776 48.032C301.742 48.1471 301.75 48.3134 301.758 48.4797L301.752 48.55C301.752 48.8101 301.804 49.2643 302.073 49.4308C302.297 49.5695 302.697 49.5827 303.207 49.4403L303.401 49.3872L303.961 50.7627L303.741 50.8371C303.668 50.8541 303.619 50.8733 303.57 50.8924C303.325 50.9881 303.127 51.0881 302.862 51.1348C302.383 51.209 301.929 51.2619 301.502 51.2701C300.532 51.2756 299.656 51.0297 298.849 50.5536C297.57 49.7978 297.015 48.6354 297.28 47.2883C297.559 45.8005 297.931 44.3213 298.186 43.3516L298.943 40.5126L299.052 40.097C299.473 38.5987 299.901 37.03 300.277 35.5039C300.476 34.6237 300.543 33.6367 300.465 32.6837C300.428 32.0654 300.187 31.5941 299.761 31.3421C299.09 30.9258 298.06 31.0678 297.506 31.1824C296.491 31.4203 295.635 31.9802 294.779 33.0603C293.448 34.6878 292.566 36.5695 292.003 38.8352C291.579 40.617 291.117 42.5609 290.567 44.9459L289.963 47.6571L289.73 48.6525C289.636 49.164 289.617 49.3751 289.61 49.4454C289.678 49.4753 289.909 49.5437 290.467 49.6423L290.678 49.6617L290.542 51.1389L290.331 51.1195C287.296 51.2192 284.208 51.3615 281.164 51.5549L280 51.6136L281.062 51.1199C281.877 50.7454 282.668 50.3688 283.483 49.9943L283.557 49.9539C283.658 49.8921 283.756 49.8538 283.924 49.822C284.905 49.6992 285.035 49.5693 285.206 48.7338C286.29 43.6311 287.428 38.4389 288.627 33.3704C289.643 28.9946 290.734 24.5784 291.844 20.2112L291.844 20.2111C291.881 20.0726 291.917 19.9341 291.928 19.8169C291.966 19.6549 291.926 19.5802 291.926 19.5802C291.905 19.5546 291.839 19.5013 291.581 19.4776L291.299 19.4518C291.016 19.4494 290.758 19.4257 290.481 19.353C289.671 19.1604 288.837 18.9657 288.004 18.7709Z" fill="#C7A24A"/>
<path d="M287.156 18.7403L287.171 18.5762M287.171 18.5762L288.004 18.7709C288.837 18.9657 289.671 19.1604 290.481 19.353C290.758 19.4257 291.016 19.4494 291.299 19.4518C291.393 19.4604 291.487 19.469 291.581 19.4776C291.839 19.5013 291.905 19.5546 291.926 19.5802C291.926 19.5802 291.966 19.6549 291.928 19.8169C291.917 19.9341 291.881 20.0726 291.844 20.2112C290.734 24.5784 289.643 28.9946 288.627 33.3704C287.428 38.4389 286.29 43.6311 285.206 48.7338C285.035 49.5693 284.905 49.6992 283.924 49.822C283.756 49.8538 283.658 49.8921 283.557 49.9539L283.483 49.9943C282.668 50.3688 281.877 50.7454 281.062 51.1199L280 51.6136L281.164 51.5549C284.208 51.3615 287.296 51.2192 290.331 51.1195L290.542 51.1389L290.678 49.6617L290.467 49.6423C289.909 49.5437 289.678 49.4753 289.61 49.4454C289.617 49.3751 289.636 49.164 289.73 48.6525L289.963 47.6571C290.165 46.7534 290.366 45.8496 290.567 44.9459C291.117 42.5609 291.579 40.617 292.003 38.8352C292.566 36.5695 293.448 34.6878 294.779 33.0603C295.635 31.9802 296.491 31.4203 297.506 31.1824C298.06 31.0678 299.09 30.9258 299.761 31.3421C300.187 31.5941 300.428 32.0654 300.465 32.6837C300.543 33.6367 300.476 34.6237 300.277 35.5039C299.901 37.03 299.473 38.5987 299.052 40.097L298.943 40.5126C298.69 41.4589 298.438 42.4053 298.186 43.3516C297.931 44.3214 297.559 45.8005 297.28 47.2883C297.015 48.6354 297.57 49.7978 298.849 50.5536C299.656 51.0297 300.532 51.2756 301.502 51.2701C301.929 51.2619 302.383 51.209 302.862 51.1348C303.127 51.0881 303.325 50.9881 303.57 50.8924C303.619 50.8733 303.668 50.8541 303.741 50.8371L303.961 50.7627L303.401 49.3872L303.207 49.4403C302.697 49.5827 302.297 49.5695 302.073 49.4308C301.804 49.2643 301.752 48.8101 301.752 48.55L301.758 48.4797C301.75 48.3134 301.742 48.1471 301.776 48.032C301.791 47.8679 301.831 47.6824 301.87 47.5205L301.876 47.4501C301.984 46.7979 302.08 46.2628 302.223 45.7321C302.901 43.2406 303.678 40.4507 304.61 37.2495L304.747 36.7891C305.125 35.4997 305.453 33.9928 305.006 32.4148C304.524 30.7153 303.299 29.6334 301.466 29.2523C298.957 28.7619 296.714 29.2417 294.786 30.6726C294.455 30.926 294.148 31.1816 293.86 31.4862C295.054 26.7247 296.348 21.9014 297.635 17.1485L298.777 12.9498C298.777 12.9498 291.145 17.7824 288.047 18.302L287.254 18.442L287.171 18.5762Z" stroke="#C7A24A" stroke-width="0.5"/>
<path d="M272.506 51.6688C271.917 51.8336 271.329 51.9749 270.717 52.0926L270.764 52.1397C269.586 52.3516 268.409 52.4694 267.255 52.4694C262.004 52.4694 257.295 50.1382 254.493 45.9939C252.703 43.3096 251.855 40.3426 252.02 37.1873C252.444 28.4985 257.271 21.2931 265.96 16.3717C268.786 14.7705 271.894 13.8286 275.238 13.5461C277.333 13.3812 279.382 13.5696 281.478 13.7816C283.455 13.9699 283.785 13.0045 283.785 13.0045C285.033 9.96693 284.986 7.8006 284.939 7.23547L286.705 7L285.904 12.0862L285.834 12.2275V12.3923C285.292 16.2304 284.798 20.0922 284.327 23.9068L284.303 24.0952H284.115L284.115 24.0952C283.667 24.1187 283.22 24.1423 282.773 24.1423H282.561L282.514 23.3417L282.726 23.271H282.49V22.9178C282.608 21.1282 282.349 19.7154 281.713 18.491C280.465 16.0892 277.71 14.8647 274.508 15.265C270.811 15.736 267.585 17.1959 264.688 19.7625C260.497 23.4829 258.025 28.004 257.13 33.5846C256.706 36.269 256.847 38.8827 257.554 41.3787C258.425 44.3927 259.838 46.6768 261.91 48.3251C265.018 50.8211 268.527 51.3391 272.671 49.9498C277.121 48.4664 279.923 45.4759 281.266 40.8136C281.807 38.9298 281.831 37.0931 281.336 35.3742C280.795 33.4669 279.382 31.9363 277.427 31.2064C275.449 30.4529 273.189 30.5471 271.07 31.4889C269.327 32.2424 268.173 33.255 267.491 34.5265C266.878 35.6803 266.831 36.8341 267.349 37.9408C267.42 38.1292 267.561 38.3176 267.726 38.4589C267.938 38.6708 268.221 38.7414 268.527 38.6943C268.833 38.6237 269.068 38.4353 269.21 38.1528C269.233 38.1057 269.257 38.0821 269.257 38.035C269.421 37.6112 269.61 37.1873 269.775 36.7635L269.939 36.3396L270.787 37.7525C271.187 38.4353 271.258 39.283 270.928 40.1072C270.599 40.9549 269.916 41.6613 269.068 42.038C268.009 42.509 266.902 42.5561 265.913 42.2028C264.877 41.8261 264.1 41.0255 263.723 39.9188C263.205 38.3411 263.37 36.7164 264.218 35.0916C266.313 31.018 272.271 28.263 277.168 29.0636C281.171 29.6994 284.162 32.6192 284.633 36.2925C284.962 38.9769 284.233 41.6848 282.419 44.3456C279.923 48.019 276.603 50.4679 272.506 51.6688Z" fill="#C7A24A" stroke="#C7A24A" stroke-width="0.5"/>
<path d="M387.816 29.7967L387.676 29.8178C387.127 29.8056 386.624 29.7863 386.124 29.7904L386.054 29.8009C385.149 29.7949 384.8 30.3239 384.704 30.7909C384.711 30.8375 384.671 30.8911 384.678 30.9376C383.52 29.7315 382.047 29.2872 379.857 29.4514C377.9 29.5805 376.081 30.3079 374.486 31.5729C369.96 35.1861 368 39.8642 368.638 45.507C368.836 47.287 369.541 48.7999 370.719 49.9792C371.844 51.119 373.464 51.7553 375.149 51.715C376.288 51.6858 377.4 51.3272 378.331 50.7102C379.09 50.2146 379.757 49.5897 380.4 48.802C380.559 49.8497 381.117 50.5512 382.016 50.9868C383.016 51.4549 384.063 51.6063 385.111 51.448C385.576 51.3776 386.055 51.2339 386.526 51.0436C386.818 50.928 387.05 50.7263 387.261 50.5514C387.324 50.4943 387.367 50.464 387.43 50.4068L388.138 49.8949L387.944 49.71C387.581 49.3599 387.222 49.0332 386.86 48.6831L386.665 48.4982L386.112 49.2486C386.112 49.2486 386.052 49.329 386.013 49.3826C386.016 49.4059 385.973 49.4362 385.954 49.463C385.808 49.6041 385.57 49.7592 385.046 49.6003C384.972 49.5875 384.895 49.5515 384.832 49.1324L384.825 49.0859C384.825 49.0859 384.797 48.8996 384.79 48.853C384.828 48.6329 384.839 48.3931 384.874 48.1497C384.929 47.5698 384.992 47.0365 385.104 46.5194C385.949 43.1291 386.942 39.4545 388.074 35.2827L388.601 33.4169C388.757 32.8694 388.912 32.322 389.087 31.7478L389.658 29.8517L388.562 29.8506C388.299 29.8427 388.04 29.8581 387.8 29.8467L387.816 29.7967ZM383.682 34.1127C383.402 35.4171 383.034 36.7588 382.681 38.0504L382.341 39.2686C382.26 39.5191 382.206 39.7892 382.148 40.0361L382.158 40.106C381.847 41.2008 381.54 42.3189 381.179 43.3975C380.32 45.9087 379.245 47.6191 377.7 48.9004C377.151 49.3644 376.597 49.6386 375.969 49.7336C374.925 49.9152 374.166 49.625 373.683 48.793C373.14 47.875 373.035 46.8668 373.005 45.2519C373.446 40.4462 374.645 36.7167 376.787 33.559C377.195 32.9497 377.813 32.3086 378.557 31.7198C379.07 31.3327 379.628 31.0817 380.21 30.9938C380.885 30.8917 381.568 31.0028 382.207 31.2873C383.283 31.7915 383.916 32.9819 383.675 34.0661L383.682 34.1127Z" fill="#C7A24A" stroke="#C7A24A" stroke-width="0.5"/>
<path d="M315.092 28.9759C313.137 29.3762 311.442 30.318 309.888 31.8486C306.568 35.1452 305.061 39.1011 305.39 43.5986C305.532 45.3646 306.073 46.9658 307.039 48.308C308.357 50.1682 310.288 51.1572 312.549 51.1572C312.69 51.1572 312.855 51.1572 313.02 51.1572C313.396 51.1572 313.797 51.0865 314.197 51.0159C315.939 50.6627 317.494 49.8386 318.953 48.4964C322.274 45.4117 324.087 41.5735 324.204 37.3351C324.134 35.2394 323.828 33.8501 323.121 32.5079C321.614 29.6352 318.553 28.293 315.115 28.9994L315.092 28.9759ZM319.401 34.2033C319.401 34.3681 319.401 34.533 319.424 34.6743C319.307 38.6537 318.506 42.2093 316.952 45.5059C316.528 46.4007 315.939 47.5309 314.974 48.3786C314.456 48.826 313.891 49.1792 313.373 49.3912C312.384 49.7915 311.513 49.5324 310.9 48.6612C310.312 47.8606 310.147 46.9187 310.053 46.1888C309.794 44.0695 310.147 41.9267 310.477 40.302C310.924 38.1121 311.513 35.781 312.761 33.6853C313.161 33.0024 313.726 32.2724 314.503 31.4248C314.974 30.9303 315.61 30.6006 316.34 30.4593C316.505 30.4358 316.646 30.4122 316.811 30.4122C316.858 30.4122 316.905 30.4122 316.952 30.4122C317.658 30.4122 318.176 30.6712 318.482 31.2128C318.836 31.8251 319.071 32.555 319.26 33.285L319.471 33.2143L319.283 33.3556C319.354 33.6146 319.377 33.9207 319.401 34.2269V34.2033Z" fill="#C7A24A" stroke="#C7A24A" stroke-width="0.5"/>
<path d="M363.642 35.8913C362.587 40.411 361.556 45.1177 360.539 49.9412C360.359 50.7938 360.321 50.8697 359.246 51.0025C358.966 51.0372 358.796 51.2005 358.732 51.2559C358.323 51.5912 357.937 51.9237 357.527 52.259L356.989 52.7051L357.673 52.6681C360.287 52.511 362.954 52.3949 365.576 52.308L365.787 52.282L365.844 50.8276L365.628 50.8068C365.003 50.7417 364.851 50.6656 364.854 50.689C364.851 50.6656 364.831 50.502 364.914 50.0173C365.36 48.064 365.804 46.0873 366.271 44.1077C366.674 42.3734 367.079 40.6625 367.505 38.9253C369.056 32.4698 370.738 25.927 372.503 19.4689C372.532 19.3229 372.541 19.2032 372.55 19.0834L372.677 18L372.396 18.0347C370.042 18.3732 367.646 18.7642 365.298 19.1494L365.064 19.1783L365.313 20.6185L366.096 20.6167C366.096 20.6167 366.236 20.5993 366.309 20.614C367.019 20.5975 367.197 20.6941 367.197 20.6941C367.197 20.6941 367.264 20.8519 367.135 21.3424C365.91 26.2153 364.712 31.1087 363.619 35.8941L363.642 35.8913Z" fill="#C7A24A" stroke="#C7A24A" stroke-width="0.5"/>
<path d="M412.051 29.6925C410.19 29.4943 408.392 29.7916 406.737 30.6112C404.047 31.9339 401.968 33.9683 400.589 36.6897C398.712 40.3534 398.501 43.9512 399.967 47.4316C400.878 49.599 402.457 50.9975 404.67 51.5878C405.595 51.847 406.574 51.9451 407.555 51.8717C408.206 51.84 408.831 51.7175 409.444 51.5495C411.011 51.1203 412.466 50.2823 413.543 49.1328C415 47.5864 415.634 46.0699 415.484 44.4509C415.406 43.5444 414.936 42.7209 414.176 42.1724C413.415 41.6239 412.422 41.3833 411.401 41.4918C410.359 41.6066 409.461 42.0722 408.825 42.7834C408.174 43.5234 407.892 44.4551 408.056 45.4112L408.368 47.3521L408.683 46.8995C408.966 46.5047 409.248 46.11 409.554 45.709C409.892 45.2501 410.22 45.1114 410.765 45.2306C411.133 45.3252 411.555 45.5271 411.669 46.3014C411.777 47.053 411.633 47.776 411.242 48.396C410.514 49.5719 409.276 50.1309 407.367 50.1165C405.779 50.112 404.771 49.4605 404.18 48.1085C403.723 47.0619 403.554 45.9118 403.677 44.7551C403.775 43.7761 403.919 42.7846 404.101 41.758L404.126 41.5804C404.206 41.0702 404.286 40.56 404.376 39.9982C406.823 39.8406 408.94 39.7247 410.84 39.6193C411.655 39.5668 412.477 39.537 413.277 39.5134C414.121 39.4773 414.966 39.4413 415.817 39.428C416.713 39.4022 416.993 38.9104 417.075 38.4972C417.316 37.2351 417.541 35.562 417.2 33.8731C416.735 31.4614 414.908 29.96 412.091 29.6574L412.051 29.6925ZM412.661 37.802C412.661 37.802 412.641 37.9053 412.624 37.9342L412.453 37.9323C410.456 38.0398 408.504 38.1349 406.605 38.2403C406.006 38.2822 405.407 38.3242 404.808 38.3662C405.491 36.2258 406.41 33.8746 408.502 32.1541C408.884 31.8542 409.346 31.5811 409.817 31.4277C410.508 31.1895 411.165 31.1805 411.667 31.4092C412.25 31.6646 412.639 32.1929 412.844 32.9423C413.288 34.6518 412.994 36.3436 412.655 37.7793L412.661 37.802Z" fill="#C7A24A" stroke="#C7A24A" stroke-width="0.5"/>
<path d="M389.985 44.6885C389.882 46.2343 389.842 47.8823 390.233 49.4707C390.667 51.2438 391.866 52.3048 393.64 52.5486C394.382 52.6496 395.126 52.6237 395.925 52.4767C396.281 52.4197 396.642 52.3103 397.004 52.2008C397.092 52.168 397.158 52.1433 397.246 52.1105C398.107 51.79 398.692 51.2704 398.972 50.538L399.541 49.0952L397.963 49.5821C397.676 49.6889 397.436 49.8537 397.303 50.1042C397.234 50.2556 396.972 50.4287 396.542 50.4883C396.059 50.5423 395.616 50.4311 395.429 50.1991C395.204 49.9313 394.97 49.6414 394.902 49.3904L394.811 49.1477C394.634 48.3343 394.44 47.4767 394.45 46.694C394.468 44.8531 394.613 43.0152 394.733 41.1111L394.805 39.9537C394.91 38.6835 395.004 37.3167 395.165 35.5229L395.417 32.6904C395.728 32.6497 396.054 32.5788 396.357 32.5161C396.52 32.4807 396.682 32.4452 396.831 32.4401C397.512 32.3121 398.201 32.2062 398.891 32.1003L399.106 32.0705L398.848 30.4328L398.633 30.4626C397.618 30.6395 396.603 30.8163 395.611 30.9849C395.772 29.1911 395.964 27.4112 396.147 25.6092L396.186 25.2427L394.928 25.7111C394.642 25.8179 394.377 25.9165 394.112 26.0151L394.024 26.048C393.45 26.2617 392.92 26.4589 392.391 26.6561C391.624 26.8913 391.245 27.359 391.197 28.1058C391.14 28.8305 391.092 29.5772 391.035 30.3019C391 30.8172 390.952 31.3628 390.918 31.8781C390.808 31.9191 390.681 31.9161 390.571 31.9572L389.608 32.1396L389.856 33.6808L390.79 33.5589C390.708 34.6198 390.617 35.6586 390.557 36.7112C390.358 39.5494 390.172 42.1562 390.015 44.7023L389.985 44.6885Z" fill="#C7A24A" stroke="#C7A24A" stroke-width="0.5"/>
<path d="M301.482 76.3055L301.646 75.1988C302.423 75.1988 303.036 75.552 303.365 76.2584C303.624 76.7764 303.718 77.4122 303.695 78.2128C303.695 78.4247 303.671 78.6602 303.648 78.8957C303.648 79.0134 303.624 79.1311 303.624 79.2253L303.554 79.9318H303.766C304.142 80.0024 304.543 80.0495 304.919 80.0966H305.131L305.178 79.9082C305.838 76.0936 306.544 72.2319 307.298 68.4408L307.345 68.2289L307.156 68.1818C306.78 68.064 306.403 67.9698 306.003 67.8521L305.767 67.7815L305.579 68.5585C304.872 71.3371 303.813 72.7499 301.952 73.3386C302.094 72.3496 302.235 71.3606 302.376 70.3716C302.847 67.1928 303.601 64.6968 304.778 62.5305C305.696 60.8116 306.521 59.6342 307.933 58.7394C311.983 58.8336 315.869 58.81 319.495 58.6923C323.027 58.7394 327.171 58.4333 331.857 57.7975C332.352 57.7504 333.105 57.6562 334.094 57.4914C334.235 57.4679 334.424 57.4208 334.683 57.3972C334.753 57.3972 334.801 57.3737 334.871 57.3501C334.871 57.3501 335.06 57.303 335.177 57.2795C339.793 56.3376 346.668 54.1713 353.615 49.2029L353.685 49.1558C353.685 49.1558 353.756 49.1087 353.78 49.0851C357.712 46.3772 360.043 42.7039 360.679 38.1357V38.0886C360.82 35.781 360.561 34.2505 359.855 32.767C358.536 30.0591 355.805 28.6463 352.555 28.9524C353.615 27.775 354.839 26.7154 356.252 25.7971C364.022 20.758 357.618 14.7064 357.618 14.7064C357.618 14.7064 361.927 20.8522 353.803 24.9494C347.704 28.0105 344.337 33.4499 343.019 35.993C341.912 38.0415 341.347 40.3021 341.323 42.798C341.323 44.5641 341.747 46.1653 342.595 47.5546C343.796 49.509 345.538 50.5921 347.775 50.7805C346.951 51.2043 346.127 51.6047 345.303 51.9814C340.97 53.7474 330.633 56.785 311.583 55.8902C311.583 55.8902 287.777 53.4413 277.746 60.1051C274.308 62.036 271.506 64.5555 269.34 67.6402C267.032 70.9132 265.996 74.1863 266.161 77.6477C266.349 81.5565 268.186 84.4763 271.624 86.3601C274.732 88.0555 278.099 88.3616 281.631 87.302C284.81 86.3365 287.33 84.5705 289.143 82.051C290.32 80.4027 290.838 78.6838 290.626 76.9413C290.367 74.7043 288.413 73.0796 286.152 73.2915C285.022 73.3857 284.033 73.9979 283.468 74.9398C282.903 75.8817 282.809 76.9648 283.256 77.9538L283.845 79.2724L284.645 77.9773C284.645 77.9773 284.74 77.8361 284.763 77.7654C284.951 77.3887 285.305 77.1061 285.705 77.0355C286.105 76.9648 286.529 77.0826 286.835 77.3651C287.165 77.6712 287.377 78.048 287.471 78.566C287.801 80.2379 287.283 81.6978 285.964 83.04C284.41 84.5941 282.455 85.4653 280.03 85.7243C275.98 86.1482 272.542 84.2409 270.87 80.6382C269.999 78.7544 269.622 76.6352 269.717 74.1392C269.858 70.2775 271.459 67.0751 274.52 64.6262C276.898 62.7189 279.865 61.4238 283.892 60.5054C286.27 59.9639 288.743 59.8461 291.286 59.7284L292.957 59.6577C295.053 59.5636 297.219 59.4929 299.315 59.4223C300.351 59.3987 301.364 59.3516 302.4 59.3281C302.682 59.3281 302.965 59.281 303.224 59.2574C300.987 61.306 299.386 63.9433 298.35 67.287C297.714 69.312 297.479 71.4548 297.243 73.3386L297.196 73.8331C297.196 73.8331 297.196 73.9037 297.196 73.9272C297.125 73.9272 297.078 73.9272 297.008 73.9272C295.053 74.1627 293.523 74.7985 292.345 75.8581C291.05 77.0119 290.509 78.3541 290.721 79.8376C290.909 81.1091 292.063 82.1687 293.216 82.1216C293.593 82.1216 293.946 82.0745 294.323 82.0745H294.794L293.735 80.8736C293.664 80.803 293.593 80.7088 293.499 80.6382C293.405 80.544 293.264 80.4262 293.216 80.3321C292.675 79.3195 292.863 78.0009 293.664 77.1532C294.653 76.1171 295.924 75.7875 297.008 75.6462L296.913 76.4468C296.843 77.1297 296.772 77.8125 296.701 78.4954C296.442 81.1562 296.019 84.6176 295.1 87.9848C294.205 91.2579 293.146 93.5655 291.709 95.4728C289.708 98.1101 287.259 99.4052 284.222 99.4052C282.267 99.4052 280.713 98.1807 280.289 96.2499C280.03 95.1432 280.219 94.2248 280.878 93.4948C281.255 93.071 281.678 92.8355 282.102 92.812C282.526 92.812 282.95 93.0239 283.35 93.4242C283.492 93.5655 283.656 93.6597 283.868 93.6597L284.763 93.7539V92.9062C284.763 92.9062 284.74 92.7649 284.74 92.6943V92.6471C284.74 92.4823 284.74 92.294 284.716 92.1291C284.528 90.316 283.162 89.068 281.537 89.1151C278.947 89.2093 276.757 91.4227 276.781 93.9658C276.781 96.6266 278.029 98.7458 280.313 100.064C281.561 100.794 282.95 101.148 284.551 101.148C285.14 101.148 285.752 101.101 286.411 101.006C286.482 101.006 286.576 100.983 286.647 100.959C289.496 100.488 292.039 99.099 294.37 96.6502C296.584 94.3425 298.256 91.4933 299.48 87.9377C300.375 85.3005 300.775 82.5455 301.105 79.9318C301.246 78.7073 301.434 77.4358 301.599 76.2349L301.482 76.3055ZM346.174 48.0726C345.703 47.1543 345.538 46.1182 345.656 44.8467C345.656 44.6347 345.703 44.4228 345.726 44.2109C345.938 42.7981 346.456 40.1843 347.563 37.2645C348.128 35.9223 348.835 34.6508 349.635 33.4263C350.224 32.5315 350.907 31.8487 351.684 31.3306C352.061 31.0952 352.437 30.9068 352.791 30.7891C353.144 30.6713 353.473 30.6242 353.803 30.6242C353.85 30.6242 353.897 30.6242 353.944 30.6242C354.18 30.6242 354.415 30.6949 354.627 30.7655C355.145 30.9774 355.546 31.4013 355.781 31.99C356.205 33.0025 356.205 34.0856 356.134 35.0746C355.546 39.4779 354.25 43.1513 352.178 46.3066C351.543 47.272 350.883 47.9784 350.153 48.4729C349.706 48.779 349.282 48.9909 348.882 49.1322C347.681 49.5325 346.692 49.1322 346.15 48.0961L346.174 48.0726Z" fill="#C7A24A" stroke="#C7A24A" stroke-width="0.5"/>
<path d="M400.238 72.4674C399.626 72.3261 399.013 72.2083 398.401 72.1142C397.86 72.02 397.389 72.4203 397.247 72.7499C396.776 73.7154 396.329 74.6808 395.858 75.6462L395.222 76.9648C394.869 77.7184 394.516 78.4719 394.139 79.2254C393.88 79.7669 393.621 80.3321 393.386 80.8736L393.339 80.9443C392.656 82.4749 391.926 84.0525 391.031 85.4653C390.301 86.6191 389.477 87.82 388.37 88.7148C387.64 89.28 387.004 89.5625 386.298 89.5861C385.756 89.5861 385.026 89.5154 384.603 89.068C384.32 88.7619 384.179 88.2674 384.226 87.6317C384.297 86.784 384.461 85.9834 384.744 85.277C385.285 83.8877 385.898 82.4984 386.463 81.2033L386.604 80.8972C386.84 80.3556 387.075 79.814 387.334 79.2489L387.97 77.789C388.464 76.6587 388.982 75.4814 389.477 74.304C390.136 72.6793 389.759 71.2429 388.37 70.2304C387.405 69.524 386.274 69.2179 385.026 69.3121C384.815 69.3121 384.603 69.3827 384.438 69.4298C384.391 69.4298 384.32 69.4533 384.273 69.4769C383.708 69.5946 383.143 69.7359 382.601 69.8536C381.801 68.8882 380.529 68.2524 379.14 68.1818C377.444 68.0876 375.937 68.6056 374.595 69.6653C374.595 69.6653 374.548 69.7124 374.524 69.7124C374.736 69.1708 374.948 68.6292 375.16 68.0876L375.278 67.7815H374.948C372.782 67.8286 370.592 67.8992 368.426 67.9934H368.19L368.285 69.5004L369.014 69.5711C369.014 69.5711 369.132 69.5711 369.179 69.5711C369.744 69.6182 369.862 69.7359 369.886 69.7359C369.886 69.7359 369.933 69.9007 369.768 70.3717C368.685 73.2915 367.743 75.8817 366.895 78.2835C366.424 79.5786 365.977 80.8501 365.53 82.1452L365.2 83.1106C364.87 84.029 364.541 84.9944 364.211 85.9127C363.999 86.5249 363.858 86.6191 363.175 86.6427C363.081 86.6427 362.986 86.6427 362.916 86.6662L362.021 86.784L362.374 88.1497H362.539C365.836 88.4794 369.156 88.8561 372.429 89.2799L373.771 89.4448L372.547 88.8326C371.605 88.3616 370.663 87.9142 369.721 87.4668C369.438 87.3255 369.156 87.302 368.897 87.2549C368.237 87.1607 368.143 87.0665 368.143 87.0665C368.143 87.0665 368.096 86.8781 368.308 86.2659L368.803 84.9002C369.297 83.5345 369.815 82.1688 370.31 80.7795L371.11 78.6131C371.793 76.7294 372.594 74.5866 373.865 72.797C374.054 72.538 374.006 72.3025 373.983 72.1612V71.8316C374.43 71.549 374.878 71.29 375.349 71.0074C376.667 70.2304 376.926 70.1362 377.562 70.0656C378.268 69.9949 378.881 70.1833 379.187 70.5836L379.375 71.0074C379.493 71.549 379.234 72.1142 378.739 72.4438C378.198 72.797 377.656 72.7264 377.091 72.2319L376.173 71.4548L375.843 72.5851C375.466 73.9273 376.149 75.4343 377.421 75.9994C377.75 76.1642 378.104 76.2584 378.457 76.3055C379.187 76.3997 379.94 76.3055 380.741 75.9759C382.625 75.1988 383.778 73.2209 383.402 71.3842C383.378 71.2194 383.331 71.0545 383.26 70.8897C383.684 70.8897 384.108 70.8897 384.508 70.8662C385.238 70.8662 385.474 71.0074 385.568 71.1016C385.709 71.2429 385.733 71.5726 385.639 72.02C385.521 72.7264 385.333 73.3386 385.097 73.8802C384.461 75.4107 383.802 76.9413 383.166 78.4248C382.601 79.767 382.06 81.0385 381.542 82.2629V82.3336C380.953 83.6522 380.317 85.1357 380.317 86.8075C380.317 88.9032 381.353 90.4102 383.237 91.0695C385.427 91.823 387.499 91.4463 389.406 89.9393C389.547 89.8451 389.665 89.7274 389.807 89.6096C389.736 89.8215 389.642 90.057 389.571 90.2689V90.3631C388.77 92.553 387.97 94.8135 386.863 96.8621C385.709 98.9813 384.438 100.441 382.837 101.407C381.377 102.301 379.87 102.537 378.363 102.137C377.421 101.878 376.903 100.983 377.138 100.041C377.256 99.57 377.515 99.2404 377.868 99.0991C378.292 98.9342 378.81 99.0049 379.328 99.3345L380.129 99.8526L380.411 98.9107C380.764 97.7333 380.246 96.3676 379.21 95.7789C378.504 95.3786 377.727 95.2845 376.809 95.4964C375.137 95.8967 373.795 97.4272 373.653 99.1462C373.488 101.053 374.407 102.655 376.102 103.432C376.691 103.714 377.303 103.879 377.962 103.997C378.363 104.067 378.787 104.091 379.21 104.091C379.728 104.091 380.246 104.044 380.812 103.95C384.061 103.455 386.957 101.736 389.43 98.8636C391.196 96.7915 392.303 94.2955 393.174 92.1056C393.574 91.1402 393.951 90.1512 394.328 89.1858L394.398 88.9974C394.987 87.4904 395.505 86.1482 396.094 84.806C397.13 82.4278 398.283 80.0024 399.272 77.9303L400.709 74.9398C400.85 74.6337 400.991 74.3511 401.133 74.0215L401.721 72.7499L401.439 72.6793C401.015 72.5851 400.591 72.4909 400.167 72.3967L400.238 72.4674Z" fill="#C7A24A" stroke="#C7A24A" stroke-width="0.5"/>
<path d="M365.718 75.6697C365.953 73.5034 365.836 71.9022 365.341 70.4658C364.729 68.6998 363.599 67.4047 362.068 66.6748C360.514 65.9448 358.748 65.8977 356.911 66.5335C355.428 67.028 354.086 67.8757 352.885 69.053C350.224 71.6667 348.67 74.8927 348.293 78.6602C348.081 80.8501 348.364 82.7338 349.188 84.4057C350.224 86.5249 351.943 87.7258 354.109 87.8671C354.274 87.8671 354.439 87.8671 354.58 87.8671C354.627 87.8671 354.698 87.8671 354.745 87.8671C356.275 87.8436 357.806 87.2784 359.242 86.2188C363.763 82.9222 365.247 78.6602 365.718 75.6462V75.6697ZM355.64 85.7479C355.263 85.9598 354.886 86.1011 354.533 86.1953C353.685 86.3601 353.026 86.0304 352.626 85.2298C352.32 84.6176 352.155 83.9112 352.131 82.9458C352.131 82.7103 352.131 82.4748 352.178 82.1923C352.178 82.051 352.178 81.9332 352.202 81.792C352.39 78.9428 353.332 76.2349 354.133 74.1863C354.98 72.0435 355.852 70.5365 356.982 69.2885C357.759 68.4172 358.489 67.9699 359.313 67.7815C359.501 67.7344 359.69 67.7108 359.855 67.7108C360.608 67.7108 361.15 68.0876 361.503 68.8411C361.809 69.5239 361.927 70.3246 361.88 71.4077C361.762 73.9273 361.032 76.3055 360.349 78.2835C359.501 80.7323 358.607 82.5219 357.453 84.0289C357.029 84.5941 356.44 85.2769 355.687 85.7243L355.64 85.7479Z" fill="#C7A24A"/>
<path d="M365.718 75.6697L365.506 75.6226M365.718 75.6697C365.953 73.5034 365.836 71.9022 365.341 70.4658C364.729 68.6998 363.599 67.4047 362.068 66.6748C360.514 65.9448 358.748 65.8977 356.911 66.5335C355.428 67.028 354.086 67.8757 352.885 69.053C350.224 71.6667 348.67 74.8927 348.293 78.6602C348.081 80.8501 348.364 82.7338 349.188 84.4057C350.224 86.5249 351.943 87.7258 354.109 87.8671C354.274 87.8671 354.439 87.8671 354.58 87.8671C354.627 87.8671 354.698 87.8671 354.745 87.8671C356.275 87.8436 357.806 87.2784 359.242 86.2188C363.763 82.9222 365.247 78.6602 365.718 75.6462V75.6697ZM355.64 85.7479C355.263 85.9598 354.886 86.1011 354.533 86.1953C353.685 86.3601 353.026 86.0304 352.626 85.2298C352.32 84.6176 352.155 83.9112 352.131 82.9458C352.131 82.7103 352.131 82.4748 352.178 82.1923C352.178 82.051 352.178 81.9332 352.202 81.792C352.39 78.9428 353.332 76.2349 354.133 74.1863C354.98 72.0435 355.852 70.5365 356.982 69.2885C357.759 68.4172 358.489 67.9699 359.313 67.7815C359.501 67.7344 359.69 67.7108 359.855 67.7108C360.608 67.7108 361.15 68.0876 361.503 68.8411C361.809 69.5239 361.927 70.3246 361.88 71.4077C361.762 73.9273 361.032 76.3055 360.349 78.2835C359.501 80.7323 358.607 82.5219 357.453 84.0289C357.029 84.5941 356.44 85.2769 355.687 85.7243L355.64 85.7479Z" stroke="#C7A24A" stroke-width="0.5"/>
<path d="M337.72 73.2209L337.532 74.0686L337.768 74.1157C338.168 74.1863 338.545 74.2569 338.945 74.3276L339.157 74.3747L339.204 74.1627C340.122 70.7484 341.064 67.287 342.03 63.8727L342.289 62.9543L341.653 63.6608C341.135 64.2494 340.593 64.8146 340.075 65.4032C339.557 65.9684 339.392 66.0155 338.615 65.8271C338.38 65.7564 338.191 65.7094 338.027 65.6623C335.648 64.8146 333.317 65.05 331.08 66.3687C328.796 67.7109 327.03 69.6653 325.829 72.2083C324.204 75.6698 323.969 79.1312 325.099 82.5455C325.146 82.7103 325.217 82.8516 325.264 82.9929L324.958 83.2519C324.322 83.817 323.686 84.3822 323.051 84.9473H323.027C323.027 84.9473 322.933 85.065 322.886 85.1121C322.603 85.4182 322.25 85.5595 322.038 85.4653C321.92 85.4182 321.779 85.3476 321.779 84.806C321.779 83.9819 321.826 83.1813 321.967 82.4278C322.58 79.1076 323.31 75.4814 324.181 71.3371C324.322 70.7013 324.463 70.0656 324.581 69.4063C324.722 68.7705 324.864 68.1582 325.029 67.4989L325.476 65.6152L323.545 65.6623C323.098 65.6623 322.65 65.6858 322.226 65.6858C321.567 65.6858 321.143 66.0626 321.026 66.6748C321.026 66.6748 321.026 66.6983 321.026 66.7219C320.578 66.2745 320.037 65.9448 319.401 65.7329C318.482 65.4268 317.47 65.3326 316.434 65.4974C314.574 65.78 312.902 66.6748 311.489 68.1112C307.886 71.808 306.426 76.3762 307.156 81.7213C307.368 83.2284 307.91 84.5941 308.805 85.7479C309.699 86.9252 311.065 87.6788 312.549 87.7965C312.69 87.7965 312.831 87.7965 312.972 87.7965C313.09 87.7965 313.184 87.7965 313.302 87.7965C314.479 87.7259 315.563 87.2314 316.457 86.3837C316.952 85.9127 317.423 85.3711 317.847 84.7825C318.129 86.1717 319.048 87.043 320.508 87.2314C321.073 87.302 321.708 87.302 322.391 87.1843C323.286 87.043 323.945 86.5721 324.299 85.8185C324.675 85.0415 325.029 84.288 325.405 83.5109L325.499 83.3225C326.324 85.2063 327.642 86.3837 329.455 86.8782C330.138 87.0665 330.798 87.1607 331.457 87.1607C331.457 87.1607 331.48 87.1607 331.504 87.1607C333.364 87.1607 335.036 86.4072 336.496 84.9473C337.72 83.7229 338.309 82.4278 338.333 80.9914C338.333 80.026 337.979 79.1547 337.344 78.5189C336.731 77.9303 335.907 77.6006 335.036 77.6242C334.024 77.6477 333.129 78.048 332.493 78.7544C331.881 79.4373 331.575 80.3556 331.669 81.3211L331.763 82.4984L332.799 81.8862C333.011 81.7684 333.105 81.6036 333.176 81.4859C333.388 81.2504 333.623 81.2033 333.976 81.2975C334.612 81.4859 334.777 82.0275 334.801 82.4513C334.871 83.9112 334.024 85.0179 332.54 85.3476C330.868 85.7243 329.667 85.1592 329.149 83.7699C328.89 83.04 328.702 82.2158 328.655 81.4152C328.49 78.7309 329.173 76.0701 329.809 74.045C330.468 71.9022 331.245 70.2539 332.281 68.8882C332.964 67.9934 333.647 67.4048 334.424 67.0515C335.366 66.6277 336.26 66.769 336.92 67.4048C337.32 67.8051 337.65 68.276 337.862 68.7705C338.333 69.9007 338.356 71.1487 337.862 72.9383C337.838 73.0325 337.815 73.1267 337.791 73.2209H337.72ZM320.131 70.6778C320.013 71.29 319.895 72.0435 319.73 72.7735C319.66 73.1031 319.589 73.4328 319.519 73.786L319.377 74.516C319.048 76.1407 318.694 77.8361 318.294 79.4608C317.776 81.533 316.952 83.2284 315.775 84.5941C315.186 85.277 314.597 85.6773 313.938 85.8421C313.043 86.0776 312.337 85.795 311.866 84.9709C311.442 84.2409 311.206 83.3696 311.183 82.4042C311.089 77.6477 312.054 73.3386 314.103 69.6182C314.432 69.0059 314.974 68.3702 315.704 67.7109C316.198 67.2635 316.764 67.028 317.376 66.9809C317.423 66.9809 317.47 66.9809 317.493 66.9809C317.894 66.9809 318.294 67.0751 318.741 67.2399C319.636 67.5931 320.201 68.6056 320.272 70.0185L320.154 70.6307L320.131 70.6778Z" fill="#C7A24A" stroke="#C7A24A" stroke-width="0.5"/>
<path d="M346.621 73.0325C346.857 72.1612 347.116 71.3135 347.375 70.4423C347.563 69.7359 347.775 69.053 347.987 68.3466L348.105 67.9227C349.164 67.9698 350.2 68.0169 351.26 68.0876H351.495L351.59 66.4864H351.354C350.436 66.4157 349.517 66.3686 348.599 66.3215C349.117 64.6026 349.635 62.8837 350.177 61.1883L350.294 60.8351L349.07 61.0234C348.811 61.0705 348.552 61.1176 348.246 61.1647C347.704 61.2589 347.21 61.3531 346.715 61.4002C345.703 61.4944 345.42 62.1302 345.303 62.6011C345.138 63.1898 344.973 63.7785 344.808 64.3671L344.69 64.791C344.573 65.2384 344.431 65.6858 344.314 66.1332C344.219 66.1332 344.149 66.1332 344.055 66.1332H343.018V67.7579H343.819C343.513 68.9117 343.183 70.042 342.877 71.1722C342.171 73.7624 341.535 76.1407 340.923 78.4247C340.522 79.9082 340.146 81.5094 340.169 83.1341C340.193 84.9473 341.041 86.2894 342.524 86.8781C343.16 87.1371 343.843 87.2784 344.549 87.302C344.643 87.302 344.714 87.302 344.808 87.302C345.067 87.302 345.326 87.302 345.562 87.2549C346.433 87.1607 347.116 86.7839 347.587 86.1482L348.058 85.4653L347.328 85.065C347.069 84.9002 346.786 84.9002 346.527 85.065C346.456 85.0885 346.339 85.1592 346.221 85.2769C346.009 85.4888 345.75 85.7008 345.02 85.4182C344.62 85.2534 344.361 84.9708 344.243 84.0289C344.055 82.6161 344.337 81.2739 344.667 80.0259C345.326 77.5299 346.032 74.9868 346.598 73.056L346.621 73.0325Z" fill="#C7A24A" stroke="#C7A24A" stroke-width="0.5"/>
<path d="M379.446 61.3296C362.256 62.0831 357.194 53.4413 357.194 53.4413C360.255 63.7784 373.983 63.7784 383.802 64.0375C393.621 64.2965 393.244 74.4217 393.244 74.4217C393.48 71.078 396.635 60.5525 379.446 61.3296Z" fill="#C7A24A" stroke="#C7A24A" stroke-width="0.5"/>
<path d="M372.566 29.2673C372.566 29.2673 377.409 26.0112 382.859 27.0927C382.859 27.0927 376.386 22.7126 372.566 29.2673Z" fill="#C7A24A" stroke="#C7A24A" stroke-width="0.5"/>
<path d="M334.047 57.5385C334.235 57.515 334.424 57.4679 334.636 57.4443C334.4 57.4914 334.188 57.515 334.047 57.5385Z" fill="#C7A24A" stroke="#C7A24A" stroke-width="0.5"/>
<path d="M112.556 49.1431C109.817 49.346 110.637 42.8592 111.39 39.5905L113.567 27.151L118.246 26.8045L118.085 24.6361L114.091 24.9319L115.515 17.8267L109.885 19.2764L108.727 25.3292L106.559 25.4898L106.719 27.6581L108.431 27.5314C107.789 31.251 106.335 39.8271 105.662 44.3752C104.989 48.9232 107.574 51.0804 108.951 51.5904L113.287 51.2692C115.509 50.2785 115.904 48.8952 115.823 48.3274C114.403 48.9834 113.054 49.1445 112.556 49.1431Z" fill="#C7A24A"/>
<path fill-rule="evenodd" clip-rule="evenodd" d="M129.827 23.4766C132.127 23.1329 133.943 23.1206 135.471 23.6503C137.02 24.1872 138.208 25.2556 139.299 26.9259C140.227 28.3454 140.41 30.1359 140.297 31.7385C140.184 33.3494 139.766 34.8458 139.409 35.7445L139.29 36.0436L124.258 36.7761C123.133 41.5865 123.404 44.3737 124.158 46.6892C124.48 47.676 125.405 48.2366 126.608 48.4168C127.809 48.5966 129.153 48.3677 130.063 47.9091C131.506 47.1813 131.993 45.9814 132.062 45.5434C132.143 44.5492 132.015 44.0507 131.868 43.8301C131.805 43.7348 131.74 43.6933 131.675 43.6723C131.6 43.6485 131.489 43.6402 131.33 43.6725C130.999 43.7397 130.575 43.9569 130.119 44.281C129.673 44.5984 129.234 44.9898 128.877 45.3544L128.124 46.1244L128.023 45.0519C127.624 40.828 129.796 39.1148 130.446 38.8289C132.442 37.9523 133.866 37.9982 134.946 38.5236C135.981 39.0272 136.616 39.9472 137.07 40.5124C137.399 40.9215 137.585 41.5182 137.638 42.1723C137.692 42.8373 137.614 43.6096 137.369 44.4136C136.877 46.0246 135.709 47.778 133.553 49.0873C130.023 51.3735 127.129 51.7832 124.819 51.2973C122.524 50.8147 120.889 49.466 119.834 48.3968C117.629 46.1618 116.396 41.7901 117.52 36.1385C118.097 33.2344 120 30.254 122.308 27.924C124.61 25.6005 127.401 23.8393 129.827 23.4766ZM132.22 25.0837C131.163 24.947 130.176 25.2985 129.301 25.8996C128.429 26.4985 127.639 27.363 126.949 28.3158C125.568 30.2217 124.521 32.5714 123.975 34.156L123.734 34.854L134.123 34.3478L134.258 34.1036C134.71 33.2816 135.447 31.278 135.49 29.3769C135.512 28.4231 135.36 27.4373 134.854 26.637C134.334 25.8138 133.475 25.2464 132.22 25.0837Z" fill="#C7A24A"/>
<path d="M4.83441 44.5426C9.13723 44.1764 8.99227 47.8231 8.38194 49.6922C7.69532 49.12 7.0087 48.4334 5.63546 48.6623C4.26222 48.8912 3.91891 51.2943 4.60553 52.0954C5.97877 53.2397 7.35201 55.0707 13.9893 51.9809C19.2992 49.5091 26.0433 35.5402 28.7517 28.8647C29.4383 27.0719 31.2693 22.2503 33.1003 17.3066C35.389 11.127 40.0809 5.4052 43.1707 3.2309C46.2605 1.05661 55.1866 -0.202199 54.8433 0.0266749C53.3785 0.575971 51.8679 2.46799 51.2957 3.34534C49.8462 15.1323 46.8785 39.3242 46.6038 41.7961C46.3292 44.2679 46.4894 45.8777 46.6038 46.3735C48.605 47.4035 51.8719 51.0655 50.4987 51.0655C45.8068 51.2943 34.9313 51.5232 34.0158 51.6376C33.2834 51.7292 33.7106 51.2943 34.0158 51.0655L39.6232 47.4035C40.7294 38.7826 43.1936 19.8242 44.2006 12.958C45.2077 6.09183 45.0017 4.60415 44.7728 4.71858C39.3943 6.09182 34.0158 20.9686 32.8714 24.0584C32.3221 26.7133 28.5991 35.1588 26.8063 39.0496C24.5175 43.2456 18.8186 52.0954 14.3327 53.9264C3.62138 58.1376 0.333229 53.1635 0.0280642 50.15C-0.162664 48.4334 0.531585 44.9088 4.83441 44.5426Z" fill="#C7A24A"/>
<path d="M24.1742 27.1482C32.8714 26.8735 38.6314 36.3412 40.4242 41.1094L40.9964 36.3031C40.0428 34.5866 37.4489 30.6499 34.7024 28.6358C29.301 24.7908 23.3732 24.8976 21.0844 25.4316C9.18301 28.5443 8.49639 36.5701 9.64076 40.194C12.7534 45.1376 16.6595 43.0167 18.2235 41.3383C19.1109 40.625 18.9101 36.7609 17.9946 37.6763C17.0791 38.5918 15.3626 40.194 13.4172 37.6763C11.4717 35.1587 13.3027 27.4915 24.1742 27.1482Z" fill="#C7A24A"/>
<path d="M55.8218 50.9689L45.5565 51.4591C45.2987 51.253 45.634 51.0063 45.8338 50.9088L49.6598 49.1722C51.1871 43.0252 54.3627 30.3968 54.8459 29.0603C55.3291 27.7237 54.9807 27.5021 54.7461 27.5584C54.1728 27.5471 52.9844 27.4749 52.8178 27.2767C52.5161 26.5155 52.999 26.0672 53.2782 25.9382L61.2085 24.5568L60.7733 26.9313C67.5876 21.456 71.3785 25.1687 72.4221 27.7094C74.7209 25.0367 79.0325 22.9977 82.5329 25.0235C85.3332 26.6442 84.9078 30.3213 84.3451 31.9573L79.866 47.8805C80.0304 49.9622 81.5071 48.8265 82.1813 48.9997C82.8555 49.1729 82.7963 49.857 82.7568 50.313C82.7253 50.6778 81.2469 50.9481 80.5117 51.0377L77.0914 50.7417C76.5213 50.6924 75.584 49.5775 75.4799 49.4536C74.7063 48.8354 74.912 46.7243 75.1115 45.7461C76.4346 41.0746 79.1501 31.4618 79.4272 30.3831C79.7736 29.0347 80.313 26.7841 77.9187 26.577C75.008 26.2332 72.6856 29.5318 71.8883 31.2241L66.7515 50.766C65.4115 50.7649 62.5927 50.7737 62.0376 50.8176C61.4825 50.8614 61.997 48.6316 62.3237 47.5113L66.6888 31.5782C67.2895 29.9455 67.9209 26.6308 65.6407 26.4335C62.4484 26.1573 60.2508 29.8725 59.551 31.7647L54.9437 49.17C56.2882 49.562 56.0893 50.5326 55.8218 50.9689Z" fill="#C7A24A"/>
<path d="M213.63 50.9689L203.365 51.4591C203.107 51.253 203.442 51.0063 203.642 50.9088L207.468 49.1722C208.995 43.0252 212.171 30.3968 212.654 29.0603C213.137 27.7237 212.789 27.5021 212.554 27.5584C211.981 27.5471 210.793 27.4749 210.626 27.2767C210.324 26.5155 210.807 26.0672 211.087 25.9382L219.017 24.5568L218.582 26.9313C225.396 21.456 229.187 25.1687 230.23 27.7094C232.529 25.0367 236.841 22.9977 240.341 25.0235C243.141 26.6442 242.716 30.3213 242.153 31.9573L237.674 47.8805C237.839 49.9622 239.315 48.8265 239.99 48.9997C240.664 49.1729 240.605 49.857 240.565 50.313C240.534 50.6778 239.055 50.9481 238.32 51.0377L234.9 50.7417C234.33 50.6924 233.392 49.5775 233.288 49.4536C232.515 48.8354 232.72 46.7243 232.92 45.7461C234.243 41.0746 236.958 31.4618 237.236 30.3831C237.582 29.0347 238.121 26.7841 235.727 26.577C232.816 26.2332 230.494 29.5318 229.697 31.2241L224.56 50.766C223.22 50.7649 220.401 50.7737 219.846 50.8176C219.291 50.8614 219.805 48.6316 220.132 47.5113L224.497 31.5782C225.098 29.9455 225.729 26.6308 223.449 26.4335C220.257 26.1573 218.059 29.8725 217.359 31.7647L212.752 49.17C214.096 49.562 213.898 50.5326 213.63 50.9689Z" fill="#C7A24A"/>
<path d="M89.3887 40.7768C92.9833 41.2643 92.3194 44.1257 91.5381 45.4955C91.0628 45.0959 89.8894 44.4436 88.9983 45.0316C87.3911 46.0167 88.0422 47.6688 88.5686 48.3717C89.4811 49.1726 92.0201 50.3314 94.8765 48.5597C98.4469 46.345 96.6095 43.5602 96.7141 43.3266C96.8186 43.093 95.2197 40.5271 92.239 37.7912C89.8544 35.6025 88.8946 33.6964 88.7128 33.0169C88.6371 32.142 88.3597 30.1227 88.5512 29.244C89.987 22.6536 100.471 21.4028 103.486 24.939C105.898 27.7679 103.875 30.4585 102.627 31.6192C101.289 32.4783 98.1027 32.9584 97.1946 30.4774C96.6345 28.096 97.5791 27.8646 97.8921 28.0421C99.5515 29.3455 101.561 28.1141 101.035 26.533C100.509 24.952 98.4263 24.4684 95.8162 25.0384C93.2062 25.6084 92.5937 27.3527 92.6818 29.4107C92.7699 31.4687 97.152 34.8318 99.1838 36.8065C101.216 38.7812 103.216 42.7045 100.415 46.8334C97.6138 50.9624 93.6416 51.8197 88.6763 50.887C84.7042 50.1408 84.0847 46.1965 84.2715 44.3177C84.4795 42.9343 85.7942 40.2893 89.3887 40.7768Z" fill="#C7A24A"/>
<path fill-rule="evenodd" clip-rule="evenodd" d="M184.403 29.7365C187.229 26.1501 190.133 24.6854 192.657 24.3645C195.066 24.0584 197.075 24.8022 198.263 25.6436L198.673 24.7609L198.791 24.5062L199.07 24.4738L204.105 23.8974L204.777 23.8212L204.653 24.4863C204.05 27.716 203.151 32.7361 202.413 37.2964C202.044 39.5767 201.715 41.7397 201.485 43.5049C201.252 45.2849 201.125 46.6212 201.144 47.2741C201.164 47.9444 201.265 48.3171 201.368 48.5063C201.453 48.6627 201.511 48.6554 201.533 48.6557C201.609 48.6566 201.753 48.6135 201.955 48.4739C202.132 48.3514 202.309 48.1844 202.459 48.0146C202.569 47.7923 202.743 47.4917 202.96 47.2181C203.187 46.9331 203.537 46.5766 203.98 46.4742L204.007 46.468L204.034 46.4647C204.387 46.4235 204.735 46.4922 204.984 46.7543C205.213 46.9953 205.266 47.3077 205.273 47.5386C205.286 47.9898 205.125 48.5272 205.077 48.7255C205.049 48.8435 204.989 48.9415 204.947 49.0041C204.899 49.0743 204.841 49.1442 204.781 49.2108C204.66 49.3446 204.501 49.4934 204.322 49.6477C203.962 49.9577 203.484 50.3157 202.965 50.655C202.446 50.9941 201.875 51.3226 201.327 51.5679C200.792 51.8071 200.227 51.9923 199.737 51.9925C198.894 51.9928 198.006 51.7786 197.25 51.3856C196.497 50.9941 195.833 50.4012 195.509 49.6172L195.477 49.5403L195.472 49.4573C195.47 49.4327 195.466 49.4088 195.464 49.3859C194.045 51.1705 192.622 52.2431 191.243 52.8003C189.739 53.4076 188.327 53.3878 187.1 53.0603C185.881 52.7347 184.852 52.1084 184.087 51.5056C183.325 50.9058 182.8 50.3081 182.591 50.0082C182.375 49.6968 181.95 48.8351 181.541 47.6118C181.127 46.3732 180.716 44.7275 180.549 42.8336C180.214 39.0418 180.855 34.2395 184.403 29.7365ZM196.023 26.5562C194.358 25.7541 192.808 26.2714 191.668 27.0538C190.562 27.8127 189.764 28.867 189.464 29.4156C189.2 29.7616 188.903 30.3398 188.615 30.981C188.31 31.6587 187.996 32.4552 187.715 33.2327C187.435 34.0098 187.185 34.7765 187.015 35.3961C186.931 35.7049 186.864 35.9859 186.823 36.2163C186.803 36.331 186.788 36.4416 186.781 36.5408C186.778 36.5775 186.776 36.6191 186.777 36.663C186.729 36.7859 186.694 36.9244 186.666 37.0486C186.616 37.2637 186.568 37.5336 186.521 37.8386C186.429 38.4504 186.338 39.2337 186.259 40.0713C186.1 41.7454 185.982 43.668 185.974 44.9232C185.965 46.2313 186.264 47.5259 186.702 48.5466C186.922 49.0572 187.182 49.5133 187.467 49.8724C187.745 50.2225 188.082 50.5244 188.466 50.6567L188.468 50.6572C190.479 51.3375 192.129 50.3331 193.301 48.9809C194.452 47.6524 195.239 45.8908 195.628 44.6513C195.743 44.4613 195.848 44.2014 195.938 43.9279C196.049 43.594 196.164 43.1786 196.279 42.7105C196.511 41.7723 196.754 40.5932 196.98 39.3693C197.425 36.9508 197.812 34.3172 197.925 32.9624C198.937 29.2132 197.36 27.1668 196.141 26.6062L196.023 26.5562Z" fill="#C7A24A"/>
<path d="M138.3 51.1686L140.987 49.0477L144.246 25.422L141.986 25.6604L141.978 24.0889L150.086 21.8318C149.606 23.0696 149.822 23.9709 149.99 24.2668C150.535 22.8252 153.113 21.5926 154.334 21.1565C159.152 19.8098 160.704 23.6924 160.878 25.8021C160.394 28.7651 158.676 30.1776 157.878 30.5135C154.943 32.1415 153.173 31.1003 152.654 30.3761C151.35 28.2606 151.988 26.6913 152.47 26.1711C152.734 26.6131 153.309 26.8846 153.564 26.9651C156.028 27.2507 156.096 25.393 155.822 24.4284C155.583 23.9421 154.629 23.1663 152.722 23.9534C150.815 24.7405 149.6 27.3937 149.231 28.6219L146.432 48.3028C148.256 48.2065 148.07 51.5656 148.07 51.5656C143.921 51.7611 139.972 51.5656 138.847 51.5656C137.891 51.5656 138.089 51.3635 138.3 51.1686Z" fill="#D9D9D9"/>
<path d="M138.3 51.1686L140.987 49.0477L144.246 25.422L141.986 25.6604L141.978 24.0889L150.086 21.8318C149.606 23.0696 149.822 23.9709 149.99 24.2668C150.535 22.8252 153.113 21.5926 154.334 21.1565C159.152 19.8098 160.704 23.6924 160.878 25.8021C160.394 28.7651 158.676 30.1776 157.878 30.5135C154.943 32.1415 153.173 31.1003 152.654 30.3761C151.35 28.2606 151.988 26.6913 152.47 26.1711C152.734 26.6131 153.309 26.8846 153.564 26.9651C156.028 27.2507 156.096 25.393 155.822 24.4284C155.583 23.9421 154.629 23.1663 152.722 23.9534C150.815 24.7405 149.6 27.3937 149.231 28.6219L146.432 48.3028C148.256 48.2065 148.07 51.5656 148.07 51.5656C143.921 51.7611 139.972 51.5656 138.847 51.5656C137.891 51.5656 138.089 51.3635 138.3 51.1686Z" fill="#C7A24A"/>
<path d="M182.108 8.66487C180.932 14.3919 179.172 23.2021 177.719 31.0168C176.992 34.9243 176.342 38.5804 175.88 41.4768C175.415 44.3973 175.15 46.4891 175.172 47.3092C175.194 48.1429 175.345 48.6335 175.519 48.9073C175.677 49.1555 175.864 49.2441 176.073 49.2625C176.31 49.2834 176.609 49.2132 176.94 49.0577C177.265 48.905 177.582 48.6889 177.836 48.4737L178.195 48.1695L178.52 48.5096C178.827 48.8304 179.081 49.1312 179.191 49.4266C179.253 49.5934 179.278 49.7793 179.23 49.9731C179.183 50.1603 179.081 50.3056 178.977 50.4157C178.79 50.6135 178.495 50.8013 178.219 50.9848C177.918 51.1846 177.555 51.429 177.14 51.7709C176.613 52.2047 175.911 52.4553 175.187 52.574C174.458 52.6935 173.668 52.686 172.93 52.5709C172.196 52.4563 171.484 52.23 170.923 51.8925C170.37 51.5595 169.893 51.072 169.789 50.4142C169.745 50.1343 169.693 49.9316 169.643 49.7877C167.903 52.6656 165.538 53.6896 163.36 53.7168C161.149 53.7443 159.14 52.7426 158.249 51.6974C156.59 49.7506 155.803 46.9753 155.352 44.13C154.884 41.1778 155.673 38.527 156.238 36.913C156.519 36.0858 156.99 34.8001 157.492 33.6213C157.743 33.0315 158.005 32.4606 158.257 31.985C158.493 31.5419 158.745 31.1323 158.997 30.8781C161.158 28.1197 163.29 26.6991 165.054 25.9645C166.822 25.2279 168.194 25.1934 168.774 25.1599C169.406 25.1235 170.11 25.2016 170.753 25.3831C171.388 25.5624 172.015 25.8578 172.445 26.2944C172.454 26.3039 172.465 26.3118 172.473 26.3205C172.731 24.6376 173.119 22.2142 173.508 20.0063C173.717 18.8237 173.926 17.699 174.117 16.7823C174.305 15.8802 174.482 15.1396 174.629 14.7513C174.875 14.0989 174.834 13.8149 174.804 13.7337L174.803 13.7329L171.453 13.6877L171.295 13.6861L171.166 13.5928C170.838 13.3544 170.603 13.0338 170.637 12.6454C170.669 12.2886 170.914 12.0656 171.078 11.9673L171.117 11.9443L171.16 11.9286L181.444 8.09594L182.29 7.78086L182.108 8.66487ZM169.343 27.0058C167.962 26.9211 166.531 27.7209 165.658 28.4217L165.624 28.4488L165.595 28.4811C163.197 31.2125 161.908 34.842 161.259 38.2297C160.61 41.616 160.592 44.8134 160.778 46.742C160.835 47.4821 161.028 48.5955 161.435 49.531C161.825 50.4253 162.525 51.3965 163.694 51.3422L163.705 51.3414C165.01 51.2543 166.03 51.001 166.901 50.3609C167.762 49.7285 168.42 48.7603 169.098 47.3766L169.108 47.3532C169.88 45.542 170.624 42.5904 171.221 39.5371C171.821 36.474 172.28 33.263 172.473 30.9124L172.478 30.8522L172.469 30.7934C172.266 29.5171 171.873 28.5918 171.32 27.9688C170.756 27.3336 170.06 27.0498 169.343 27.0058Z" fill="#C7A24A"/>
</svg>
